<?xml version="1.0" encoding="iso-8859-1"?>
<!-- Generator: Adobe Illustrator 19.0.0, SVG Export Plug-In . SVG Version: 6.00 Build 0)  -->
<svg xmlns="http://www.w3.org/2000/svg" xmlns:xlink="http://www.w3.org/1999/xlink" version="1.1" id="Capa_1" x="0px" y="0px" viewBox="0 0 512 512" style="enable-background:new 0 0 512 512;" xml:space="preserve" width="512px" height="512px">
<g>
	<g>
		<path d="M123.468,318.909c-17.837,0-32.349,14.512-32.349,32.349c0,17.837,14.512,32.349,32.349,32.349    c17.837,0,32.349-14.512,32.349-32.349C155.817,333.421,141.305,318.909,123.468,318.909z M123.468,368.608    c-9.566,0-17.349-7.783-17.349-17.349c0-9.566,7.783-17.349,17.349-17.349c9.566,0,17.349,7.783,17.349,17.349    C140.817,360.826,133.034,368.608,123.468,368.608z" fill="#FFFFFF"/>
	</g>
</g>
<g>
	<g>
		<path d="M123.468,339.613c-4.142,0-7.5,3.358-7.5,7.5v8.284c0,4.142,3.358,7.5,7.5,7.5c4.142,0,7.5-3.358,7.5-7.5v-8.284    C130.968,342.97,127.61,339.613,123.468,339.613z" fill="#FFFFFF"/>
	</g>
</g>
<g>
	<g>
		<path d="M388.534,318.909c-17.838,0-32.35,14.512-32.35,32.349c0,17.837,14.512,32.349,32.35,32.349    c17.837,0,32.349-14.512,32.349-32.349C420.882,333.421,406.371,318.909,388.534,318.909z M388.534,368.608    c-9.566,0-17.35-7.783-17.35-17.349c0-9.566,7.783-17.349,17.35-17.349s17.349,7.783,17.349,17.349    C405.882,360.826,398.1,368.608,388.534,368.608z" fill="#FFFFFF"/>
	</g>
</g>
<g>
	<g>
		<path d="M388.534,339.613c-4.143,0-7.5,3.358-7.5,7.5v8.284c0,4.142,3.357,7.5,7.5,7.5s7.5-3.358,7.5-7.5v-8.284    C396.034,342.97,392.676,339.613,388.534,339.613z" fill="#FFFFFF"/>
	</g>
</g>
<g>
	<g>
		<path d="M504.5,327.191h-9.065v-75.334c0,0,0-0.002,0-0.003c0-0.318-0.026-0.63-0.065-0.938c-0.01-0.081-0.024-0.161-0.037-0.241    c-0.041-0.256-0.094-0.507-0.159-0.754c-0.011-0.041-0.015-0.084-0.026-0.125l-33.134-115.966    c-0.921-3.22-3.863-5.439-7.212-5.439h-93.995l-6.574-19.722c-1.02-3.063-3.887-5.128-7.115-5.128H106.899    c-4.142,0-7.5,3.358-7.5,7.5v17.35H76.435c-4.142,0-7.5,3.358-7.5,7.5c0,4.142,3.358,7.5,7.5,7.5h278.939    c0.008,0,0.017,0.002,0.025,0.002s0.016-0.002,0.025-0.002h93.72l2.815,9.851h-46.857h-82.835c-4.143,0-7.5,3.358-7.5,7.5v74.549    c0,4.142,3.357,7.5,7.5,7.5h81.617l48.545,16.182c0.765,0.255,1.566,0.385,2.372,0.385h25.634v18.131H454.8    c-2.411,0-4.675,1.159-6.084,3.115c-1.41,1.956-1.794,4.47-1.031,6.757l8.284,24.852c1.02,3.063,3.887,5.128,7.115,5.128h17.35    v9.85h-9.067c-4.143,0-7.5,3.358-7.5,7.5v25.632h-18.859c0.472-2.954,0.726-5.98,0.726-9.064c0-31.54-25.659-57.2-57.199-57.2    c-31.54,0-57.2,25.66-57.2,57.2c0,3.085,0.253,6.112,0.726,9.066h-27.142V160.742c0-4.142-3.357-7.5-7.5-7.5h-82.832    c-4.142,0-7.5,3.358-7.5,7.5v74.501c0,0.016-0.002,0.032-0.002,0.048s0.002,0.032,0.002,0.048v124.985h-27.144    c0.473-2.954,0.726-5.981,0.726-9.066c0-31.54-25.66-57.2-57.2-57.2c-31.54,0-57.199,25.66-57.199,57.2    c0,3.085,0.253,6.111,0.726,9.064H15v-18.134h25.635c4.142,0,7.5-3.358,7.5-7.5v-33.133c0-4.142-3.358-7.5-7.5-7.5H15V152.459    c0-5,4.067-9.067,9.067-9.067h22.18c4.142,0,7.5-3.358,7.5-7.5c0-4.142-3.358-7.5-7.5-7.5h-22.18    C10.796,128.391,0,139.188,0,152.459v215.364c0,4.142,3.358,7.5,7.5,7.5h64.095c9.105,19.547,28.926,33.135,51.872,33.135    c22.946,0,42.767-13.588,51.872-33.134H336.66c9.105,19.546,28.927,33.134,51.873,33.134s42.768-13.588,51.873-33.135h30.96H504.5    c4.143,0,7.5-3.358,7.5-7.5v-33.132C512,330.549,508.642,327.191,504.5,327.191z M114.399,128.391v-9.85h227.312l3.283,9.85    H114.399z M397.601,227.792h-67.835v-59.549h67.835V227.792z M456.017,244.358l-43.416-14.473v-61.643h43.642l21.748,76.116    H456.017z M15,309.056h18.135v18.133H15V309.056z M123.468,393.458c-23.269,0-42.199-18.931-42.199-42.2    c0-23.269,18.931-42.2,42.199-42.2c23.269,0,42.2,18.931,42.2,42.2C165.668,374.529,146.737,393.458,123.468,393.458z     M289.918,360.324h-67.832V242.792h67.832V360.324z M289.918,227.792h-67.832v-59.549h67.832V227.792z M388.534,393.458    c-23.27,0-42.2-18.931-42.2-42.2c0-23.269,18.931-42.2,42.2-42.2c23.269,0,42.199,18.931,42.199,42.2    C430.733,374.529,411.802,393.458,388.534,393.458z M468.49,302.341l-3.284-9.852h15.228v9.852H468.49z M497,360.323h-18.133    v-18.132H497V360.323z" fill="#FFFFFF"/>
	</g>
</g>
<g>
	<g>
		<path d="M189.734,153.242H106.9c-4.142,0-7.5,3.358-7.5,7.5v74.549c0,4.142,3.358,7.5,7.5,7.5h82.834c4.142,0,7.5-3.358,7.5-7.5    v-74.549C197.234,156.6,193.876,153.242,189.734,153.242z M182.234,227.792H114.4v-59.549h67.834V227.792z" fill="#FFFFFF"/>
	</g>
</g>
<g>
	<g>
		<path d="M82.05,153.242H40.632c-4.142,0-7.5,3.358-7.5,7.5v74.549c0,4.142,3.358,7.5,7.5,7.5H82.05c4.142,0,7.5-3.358,7.5-7.5    v-74.549C89.55,156.6,86.192,153.242,82.05,153.242z M74.55,227.792H48.132v-59.549H74.55V227.792z" fill="#FFFFFF"/>
	</g>
</g>
<g>
	<g>
		<path d="M421.666,260.923h-16.564c-4.143,0-7.5,3.358-7.5,7.5c0,4.142,3.357,7.5,7.5,7.5h16.564c4.143,0,7.5-3.358,7.5-7.5    C429.166,264.281,425.809,260.923,421.666,260.923z" fill="#FFFFFF"/>
	</g>
</g>
<g>
</g>
<g>
</g>
<g>
</g>
<g>
</g>
<g>
</g>
<g>
</g>
<g>
</g>
<g>
</g>
<g>
</g>
<g>
</g>
<g>
</g>
<g>
</g>
<g>
</g>
<g>
</g>
<g>
</g>
</svg>
